<svg width="673" height="202" viewBox="0 0 673 202" fill="none" xmlns="http://www.w3.org/2000/svg">
<path fill-rule="evenodd" clip-rule="evenodd" d="M50.7861 16.7793C50.7861 12.1459 54.5758 8.38965 59.2505 8.38965C63.9252 8.38965 67.7148 12.1459 67.7148 16.7793V25.169H135.43V16.7793C135.43 12.1459 139.219 8.38965 143.894 8.38965C148.569 8.38965 152.358 12.1459 152.358 16.7793V25.169H160.823C174.847 25.169 186.216 36.4376 186.216 50.338V167.793C186.216 181.694 174.847 192.962 160.823 192.962H42.3218C28.2976 192.962 16.9287 181.694 16.9287 167.793V50.338C16.9287 36.4376 28.2976 25.169 42.3218 25.169H50.7861V16.7793ZM135.43 41.9483V50.338C135.43 54.9714 139.219 58.7277 143.894 58.7277C148.569 58.7277 152.358 54.9714 152.358 50.338V41.9483H160.823C165.498 41.9483 169.287 45.7045 169.287 50.338V75.507H33.8574V50.338C33.8574 45.7045 37.6471 41.9483 42.3218 41.9483H50.7861V50.338C50.7861 54.9714 54.5758 58.7277 59.2505 58.7277C63.9252 58.7277 67.7148 54.9714 67.7148 50.338V41.9483H135.43ZM33.8574 92.2863V167.793C33.8574 172.427 37.6471 176.183 42.3218 176.183H160.823C165.498 176.183 169.287 172.427 169.287 167.793V92.2863H33.8574Z" fill="#CD0ACB"/>
<path d="M85.4474 137.008C89.6528 145.457 88.0361 147.275 86.1625 149.345C83.0376 152.799 80.8344 156.489 85.5786 166.717C86.1854 168.027 87.803 168.633 89.2038 168.056C90.5974 167.482 91.2345 165.952 90.624 164.638C86.8749 156.555 88.4107 154.861 90.3523 152.715C93.5552 149.176 95.6198 145.595 90.7663 135.48C95.9521 131.742 103.985 121.827 101.363 110.154C98.8585 99.0201 89.124 93.9156 78.5614 96.0881C67.5297 98.3574 61.4755 107.302 63.8421 117.838C66.5484 129.878 79.193 136.132 85.4474 137.008ZM79.7346 101.16C87.4725 99.566 94.1372 103.057 95.9732 111.229C98.3995 122.025 88.7228 130.899 86.6086 131.935C84.2503 131.829 71.6607 127.575 69.2317 116.763C67.4783 108.957 71.6011 102.833 79.7346 101.16Z" fill="#CD0ACB"/>
<path d="M71.9243 116.225C70.8327 111.364 72.5182 108.417 74.1265 106.801C75.1648 105.753 76.9099 105.701 78.018 106.683C79.1288 107.662 79.1848 109.305 78.1447 110.352C77.0954 111.405 76.8246 112.976 77.3139 115.151C77.5131 116.036 77.8518 116.893 78.3273 117.699C79.0645 118.954 78.5826 120.533 77.2514 121.228C75.9332 121.92 74.2486 121.475 73.5078 120.216C72.7688 118.957 72.2364 117.615 71.9243 116.225Z" fill="#CD0ACB"/>
<path d="M112.982 156.248C110.293 161.851 109.529 165.855 110.536 169.026C110.894 170.153 111.989 170.88 113.175 170.88C115.009 170.88 116.343 169.21 115.813 167.54C115.193 165.584 116.018 162.37 118.3 157.772C123.825 156.996 137.075 151.172 139.9 138.602C142.266 128.066 136.212 119.122 125.18 116.852C114.643 114.683 104.889 119.763 102.379 130.917C99.7571 142.594 107.795 152.511 112.982 156.248ZM107.769 131.993C109.606 123.822 116.269 120.332 124.008 121.924C132.141 123.597 136.264 129.722 134.51 137.527C132.081 148.34 119.492 152.593 117.133 152.699C115.02 151.663 105.343 142.789 107.769 131.993Z" fill="#CD0ACB"/>
<path d="M112.998 139.722C111.637 139.722 110.454 138.774 110.27 137.469C110.036 135.805 110.1 134.143 110.461 132.532C111.039 129.952 112.148 127.921 113.756 126.498C114.858 125.519 116.606 125.564 117.647 126.61C118.688 127.655 118.634 129.297 117.526 130.28C116.757 130.963 116.192 132.082 115.851 133.606C115.619 134.639 115.579 135.708 115.73 136.785C115.951 138.337 114.667 139.722 112.998 139.722Z" fill="#CD0ACB"/>
<path d="M211.509 66.4193H230.988V74.0492C236.182 68.236 243.039 65.3294 251.557 65.3294C261.322 65.3294 269.426 68.8588 275.866 75.9178C282.307 82.8729 285.528 91.6966 285.528 102.389C285.528 113.185 282.307 122.06 275.866 129.016C269.529 135.867 261.426 139.293 251.557 139.293C243.039 139.293 236.182 136.386 230.988 130.573V166.698H211.509V66.4193ZM235.974 115.624C239.195 119.154 243.454 120.919 248.752 120.919C254.05 120.919 258.362 119.206 261.686 115.78C265.01 112.251 266.673 107.787 266.673 102.389C266.673 96.9908 265.01 92.5271 261.686 88.9976C258.362 85.3643 254.05 83.5477 248.752 83.5477C243.454 83.5477 239.143 85.3124 235.819 88.8419C232.598 92.3714 230.988 96.887 230.988 102.389C230.988 107.787 232.65 112.199 235.974 115.624Z" fill="url(#paint0_linear_2247_303)"/>
<path d="M300.076 138.047V36.834H319.71L319.554 138.047H300.076Z" fill="url(#paint1_linear_2247_303)"/>
<path d="M343.915 75.6064C350.252 68.755 358.355 65.3294 368.224 65.3294C376.743 65.3294 383.599 68.236 388.794 74.0492V66.4193H408.272V138.047H388.794V130.573C383.599 136.386 376.743 139.293 368.224 139.293C358.459 139.293 350.356 135.815 343.915 128.86C337.474 121.801 334.254 112.925 334.254 102.233C334.254 91.4371 337.474 82.5615 343.915 75.6064ZM353.109 102.233C353.109 107.631 354.771 112.095 358.095 115.624C361.42 119.154 365.731 120.919 371.029 120.919C376.327 120.919 380.587 119.154 383.807 115.624C387.131 112.095 388.794 107.631 388.794 102.233C388.794 96.8351 387.131 92.3714 383.807 88.8419C380.587 85.3124 376.327 83.5477 371.029 83.5477C365.731 83.5477 361.42 85.3124 358.095 88.8419C354.771 92.3714 353.109 96.8351 353.109 102.233Z" fill="url(#paint2_linear_2247_303)"/>
<path d="M425.469 66.4193H444.948V73.2707C449.83 67.9765 456.531 65.3294 465.05 65.3294C472.633 65.3294 479.178 67.665 484.684 72.3364C490.19 76.904 492.943 84.2224 492.943 94.2918V138.047H473.464V97.2503C473.464 91.6447 471.958 87.6481 468.945 85.2605C466.037 82.8729 462.764 81.6791 459.128 81.6791C455.492 81.6791 452.22 82.8729 449.311 85.2605C446.402 87.6481 444.948 91.6447 444.948 97.2503V138.047H425.469V66.4193Z" fill="url(#paint3_linear_2247_303)"/>
<path d="M510.079 66.4193H529.558V73.2707C534.441 67.9765 541.141 65.3294 549.66 65.3294C557.243 65.3294 563.788 67.665 569.294 72.3364C574.8 76.904 577.553 84.2224 577.553 94.2918V138.047H558.075V97.2503C558.075 91.6447 556.568 87.6481 553.555 85.2605C550.647 82.8729 547.374 81.6791 543.738 81.6791C540.102 81.6791 536.83 82.8729 533.921 85.2605C531.012 87.6481 529.558 91.6447 529.558 97.2503V138.047H510.079V66.4193Z" fill="url(#paint4_linear_2247_303)"/>
<path d="M615.259 66.4193L615.103 138.047H595.624V66.4193H615.259ZM597.962 37.3012C600.039 35.5364 602.533 34.6541 605.442 34.6541C608.246 34.6541 610.74 35.5883 612.921 37.4569C615.103 39.3254 616.194 41.8168 616.194 44.9311C616.194 48.1491 615.103 50.7443 612.921 52.7167C610.74 54.7928 608.246 55.8309 605.442 55.8309C602.637 55.8309 600.143 54.8447 597.962 52.8724C595.78 50.7962 594.689 48.1491 594.689 44.9311C594.689 41.713 595.78 39.1697 597.962 37.3012Z" fill="url(#paint5_linear_2247_303)"/>
<path d="M628.667 81.212V66.4193H638.017V44.4639H657.496V66.4193H672.767V81.212H657.496V114.223C657.496 116.195 657.755 117.804 658.275 119.05C658.794 120.296 659.573 121.178 660.612 121.697C661.755 122.216 662.742 122.58 663.573 122.787C664.508 122.891 665.703 122.943 667.157 122.943H671.988V138.047H659.054C645.029 138.047 638.017 131.144 638.017 117.337V81.212H628.667Z" fill="url(#paint6_linear_2247_303)"/>
<defs>
<linearGradient id="paint0_linear_2247_303" x1="204" y1="-6.5" x2="717" y2="177" gradientUnits="userSpaceOnUse">
<stop offset="0.00109851" stop-color="#E00BDE"/>
<stop offset="1" stop-color="#2D58F4"/>
</linearGradient>
<linearGradient id="paint1_linear_2247_303" x1="204" y1="-6.5" x2="717" y2="177" gradientUnits="userSpaceOnUse">
<stop offset="0.00109851" stop-color="#E00BDE"/>
<stop offset="1" stop-color="#2D58F4"/>
</linearGradient>
<linearGradient id="paint2_linear_2247_303" x1="204" y1="-6.5" x2="717" y2="177" gradientUnits="userSpaceOnUse">
<stop offset="0.00109851" stop-color="#E00BDE"/>
<stop offset="1" stop-color="#2D58F4"/>
</linearGradient>
<linearGradient id="paint3_linear_2247_303" x1="204" y1="-6.5" x2="717" y2="177" gradientUnits="userSpaceOnUse">
<stop offset="0.00109851" stop-color="#E00BDE"/>
<stop offset="1" stop-color="#2D58F4"/>
</linearGradient>
<linearGradient id="paint4_linear_2247_303" x1="204" y1="-6.5" x2="717" y2="177" gradientUnits="userSpaceOnUse">
<stop offset="0.00109851" stop-color="#E00BDE"/>
<stop offset="1" stop-color="#2D58F4"/>
</linearGradient>
<linearGradient id="paint5_linear_2247_303" x1="204" y1="-6.5" x2="717" y2="177" gradientUnits="userSpaceOnUse">
<stop offset="0.00109851" stop-color="#E00BDE"/>
<stop offset="1" stop-color="#2D58F4"/>
</linearGradient>
<linearGradient id="paint6_linear_2247_303" x1="204" y1="-6.5" x2="717" y2="177" gradientUnits="userSpaceOnUse">
<stop offset="0.00109851" stop-color="#E00BDE"/>
<stop offset="1" stop-color="#2D58F4"/>
</linearGradient>
</defs>
</svg>
